<?xml version="1.0" encoding="UTF-8" standalone="no"?>
<!DOCTYPE svg PUBLIC "-//W3C//DTD SVG 1.1//EN" "http://www.w3.org/Graphics/SVG/1.1/DTD/svg11.dtd">
<svg xmlns="http://www.w3.org/2000/svg" version="1.1" viewBox="0.00 0.00 999.00 615.00">
<g fill="#ffffff">
<path d="
  M 35.65 212.30
  C 26.58 203.47 23.78 187.10 35.47 179.04
  Q 35.91 178.74 35.54 178.36
  Q 27.13 169.60 27.87 158.24
  C 28.62 146.68 40.66 140.32 51.26 138.47
  A 0.66 0.66 0.0 0 0 51.81 137.83
  Q 52.00 130.90 51.87 127.25
  C 51.42 114.66 59.53 104.32 71.23 100.58
  C 73.66 99.80 75.95 99.84 78.50 99.83
  Q 119.16 99.60 159.82 99.61
  C 172.38 99.61 182.51 106.94 186.15 118.51
  Q 187.50 122.80 187.47 131.13
  Q 187.39 155.19 187.46 179.18
  A 0.57 0.55 19.5 0 0 187.68 179.62
  Q 194.67 185.10 202.18 189.84
  Q 212.00 196.04 214.84 198.50
  C 240.73 220.95 245.20 262.56 230.06 292.01
  C 220.34 310.91 203.01 324.28 181.28 325.38
  Q 180.78 325.41 180.40 325.74
  C 174.25 331.11 168.73 334.39 160.25 334.39
  Q 120.62 334.42 80.98 334.40
  C 78.33 334.39 74.38 334.36 71.83 333.56
  C 61.61 330.34 53.09 321.81 52.07 310.76
  C 51.10 300.32 51.62 289.44 51.63 278.65
  Q 51.63 278.04 51.03 278.03
  C 36.59 277.78 28.10 259.36 37.20 248.21
  Q 37.54 247.81 37.12 247.48
  C 26.40 238.97 23.49 221.88 35.60 213.00
  Q 36.04 212.68 35.65 212.30
  Z"
/>
<path d="
  M 292.50 286.25
  Q 292.81 288.32 293.11 286.25
  L 314.81 139.08
  A 0.68 0.67 3.9 0 1 315.48 138.50
  L 340.73 138.50
  A 0.66 0.65 4.5 0 1 341.38 139.25
  L 313.13 321.98
  A 0.60 0.60 0.0 0 1 312.54 322.49
  L 270.31 322.48
  A 0.50 0.50 0.0 0 1 269.82 322.06
  L 241.60 138.99
  A 0.43 0.42 -4.6 0 1 242.02 138.50
  L 270.23 138.51
  A 0.56 0.55 -4.2 0 1 270.78 138.98
  L 292.50 286.25
  Z"
/>
<rect x="354.71" y="138.51" width="29.10" height="184.02" rx="0.71"/>
<path d="
  M 448.26 287.01
  A 0.19 0.19 0.0 0 0 448.64 287.01
  L 470.48 138.97
  A 0.56 0.55 4.2 0 1 471.03 138.50
  L 496.69 138.50
  Q 497.14 138.50 497.07 138.95
  L 468.79 322.01
  Q 468.71 322.48 468.24 322.48
  L 426.02 322.49
  Q 425.54 322.49 425.47 322.02
  L 397.24 139.05
  A 0.48 0.47 -4.6 0 1 397.71 138.50
  L 425.93 138.49
  A 0.51 0.51 0.0 0 1 426.43 138.92
  L 448.26 287.01
  Z"
/>
<path d="
  M 539.96 215.98
  L 578.60 216.01
  A 0.50 0.50 0.0 0 1 579.10 216.51
  L 579.15 241.79
  A 0.50 0.50 0.0 0 1 578.65 242.29
  L 539.83 242.21
  A 0.50 0.50 0.0 0 0 539.33 242.71
  L 539.47 295.67
  A 0.50 0.50 0.0 0 0 539.97 296.17
  L 588.87 296.28
  A 0.50 0.50 0.0 0 1 589.37 296.78
  L 589.43 321.97
  A 0.50 0.50 0.0 0 1 588.93 322.47
  L 511.00 322.48
  A 0.50 0.50 0.0 0 1 510.50 321.98
  L 510.48 138.99
  A 0.50 0.50 0.0 0 1 510.98 138.49
  L 588.97 138.51
  A 0.50 0.50 0.0 0 1 589.47 139.01
  L 589.39 164.25
  A 0.50 0.50 0.0 0 1 588.89 164.75
  L 539.84 164.75
  A 0.50 0.50 0.0 0 0 539.34 165.25
  L 539.46 215.48
  A 0.50 0.50 0.0 0 0 539.96 215.98
  Z"
/>
<path d="
  M 675.41 232.31
  A 0.30 0.29 42.1 0 0 675.44 232.84
  C 689.92 238.87 693.90 254.68 694.01 269.50
  Q 694.14 287.12 694.29 304.75
  C 694.36 312.66 695.46 315.91 696.93 321.95
  Q 697.07 322.50 696.50 322.50
  L 668.25 322.48
  A 0.74 0.74 0.0 0 1 667.55 321.98
  Q 665.25 315.28 665.18 306.25
  Q 665.02 287.25 665.04 268.25
  C 665.04 263.07 663.74 256.52 660.40 252.60
  C 655.07 246.32 643.71 247.23 636.35 247.59
  A 0.24 0.24 0.0 0 0 636.12 247.83
  L 636.15 322.12
  Q 636.15 322.49 635.79 322.49
  L 607.74 322.48
  Q 607.25 322.48 607.25 321.99
  L 607.23 138.76
  A 0.16 0.16 0.0 0 1 607.39 138.60
  Q 629.14 138.37 650.99 138.35
  Q 664.47 138.34 675.00 142.92
  Q 680.57 145.34 684.72 150.22
  C 695.07 162.43 694.17 181.59 693.73 196.25
  C 693.27 211.43 689.61 224.66 675.41 232.31
  Z
  M 636.62 221.19
  C 651.90 221.62 664.51 222.23 664.75 202.50
  Q 664.88 191.50 664.59 180.51
  C 664.31 170.46 660.24 165.15 649.89 164.82
  Q 643.20 164.61 636.74 164.81
  Q 636.09 164.83 636.09 165.48
  L 636.17 220.73
  Q 636.17 221.18 636.62 221.19
  Z"
/>
<path d="
  M 799.75 138.51
  C 823.31 138.58 839.53 150.09 841.96 174.26
  C 842.72 181.81 843.00 190.32 843.00 198.92
  Q 842.96 232.15 843.10 265.37
  C 843.24 297.30 837.71 322.21 799.25 322.41
  Q 776.73 322.53 754.20 322.46
  Q 753.72 322.46 753.72 321.98
  L 753.73 138.99
  A 0.47 0.46 90.0 0 1 754.19 138.52
  Q 777.03 138.45 799.75 138.51
  Z
  M 798.76 296.22
  C 810.06 296.00 813.65 288.90 813.64 278.50
  Q 813.57 230.88 813.63 183.25
  C 813.64 174.34 811.11 165.04 800.48 164.84
  Q 791.63 164.66 782.95 164.78
  A 0.43 0.43 0.0 0 0 782.53 165.21
  C 782.86 200.92 783.24 234.56 782.67 283.50
  Q 782.60 289.44 782.81 295.58
  Q 782.82 296.10 783.34 296.12
  Q 791.04 296.37 798.76 296.22
  Z"
/>
<path d="
  M 889.85 165.39
  L 889.94 215.45
  A 0.51 0.51 0.0 0 0 890.45 215.96
  L 929.25 216.02
  A 0.35 0.35 0.0 0 1 929.60 216.37
  L 930.02 240.60
  A 1.85 1.85 0.0 0 1 928.15 242.48
  L 890.34 242.15
  A 0.51 0.50 -89.4 0 0 889.83 242.66
  L 889.94 295.30
  A 0.86 0.86 0.0 0 0 890.80 296.16
  L 939.33 296.28
  A 0.54 0.53 90.0 0 1 939.86 296.82
  L 939.97 321.98
  A 0.58 0.58 0.0 0 1 939.39 322.56
  L 861.49 322.44
  Q 861.01 322.44 861.01 321.96
  C 860.96 307.27 860.56 292.23 860.56 278.00
  Q 860.57 209.22 860.89 139.13
  Q 860.89 138.50 861.52 138.50
  L 939.31 138.50
  A 0.57 0.56 -0.0 0 1 939.88 139.06
  L 939.92 164.04
  Q 939.92 164.76 939.21 164.76
  L 890.48 164.75
  Q 889.85 164.75 889.85 165.39
  Z"
/>
<path d="
  M 601.37 347.49
  L 591.37 360.02
  A 0.32 0.32 0.0 0 1 591.12 360.14
  L 569.66 360.12
  A 0.32 0.32 0.0 0 1 569.41 359.60
  L 589.93 333.99
  A 0.32 0.32 0.0 0 1 590.18 333.87
  L 613.28 333.87
  A 0.32 0.32 0.0 0 1 613.53 333.99
  L 634.04 359.60
  A 0.32 0.32 0.0 0 1 633.79 360.12
  L 612.36 360.14
  A 0.32 0.32 0.0 0 1 612.11 360.02
  L 601.87 347.49
  A 0.32 0.32 0.0 0 0 601.37 347.49
  Z"
/>
<path d="
  M 205.25 390.97
  C 199.34 392.27 196.76 396.82 196.10 402.50
  C 193.46 425.12 213.94 437.92 228.43 452.57
  C 237.71 461.95 244.52 473.87 246.17 487.01
  C 249.38 512.71 238.60 535.08 210.27 535.86
  C 201.32 536.11 192.26 534.86 184.73 530.10
  C 169.04 520.18 168.99 500.94 169.23 484.75
  Q 169.24 484.23 169.76 484.23
  L 193.25 484.23
  Q 193.79 484.23 193.78 484.77
  C 193.69 491.38 192.45 502.61 196.94 507.80
  C 201.90 513.55 213.23 513.57 217.87 507.30
  Q 219.44 505.17 220.12 501.17
  C 222.19 488.99 217.19 479.47 209.09 470.89
  C 192.10 452.92 171.80 440.05 170.03 412.51
  C 169.14 398.63 172.10 381.72 184.20 373.37
  C 195.17 365.80 212.28 365.32 224.76 369.55
  C 242.97 375.73 247.06 396.38 246.33 413.14
  Q 246.31 413.70 245.74 413.70
  L 222.26 413.70
  Q 221.77 413.70 221.76 413.21
  C 221.68 407.64 222.25 401.58 219.94 396.52
  C 217.52 391.23 210.34 389.86 205.25 390.97
  Z"
/>
<path d="
  M 257.39 484.58
  A 0.37 0.36 0.8 0 1 257.76 484.23
  L 281.49 484.23
  Q 281.93 484.23 281.94 484.68
  C 282.06 496.26 279.35 513.61 297.50 511.91
  C 312.35 510.51 310.05 490.19 305.20 481.31
  C 299.91 471.62 290.53 463.59 281.80 455.70
  C 266.60 441.94 257.26 426.54 258.25 405.01
  C 258.72 394.78 261.08 384.99 267.88 377.53
  C 277.86 366.57 295.21 365.21 308.98 368.43
  C 330.44 373.44 335.40 394.23 334.57 413.19
  Q 334.54 413.75 333.99 413.74
  L 310.48 413.69
  A 0.45 0.45 0.0 0 1 310.03 413.24
  C 310.01 407.94 310.44 401.92 308.43 397.05
  C 304.33 387.11 287.10 388.82 284.91 399.81
  C 281.45 417.09 291.24 428.98 303.05 439.70
  C 316.48 451.88 329.26 463.64 333.65 482.11
  Q 336.53 494.19 333.18 508.96
  C 328.02 531.67 308.19 538.34 287.27 535.15
  Q 266.30 531.96 259.85 512.17
  C 257.05 503.62 257.22 493.81 257.39 484.58
  Z"
/>
<path d="
  M 438.84 393.56
  C 434.84 390.13 427.84 389.67 423.22 392.15
  C 418.51 394.69 417.47 399.80 417.20 405.14
  C 416.47 419.60 425.77 430.33 435.80 439.45
  C 449.69 452.08 463.09 464.33 466.97 483.74
  Q 469.35 495.65 466.01 509.53
  C 461.12 529.82 444.53 537.08 425.26 535.73
  C 415.88 535.07 407.54 532.59 400.98 525.93
  C 390.19 515.00 389.92 499.00 390.44 484.77
  Q 390.46 484.23 391.00 484.23
  L 414.48 484.23
  Q 414.95 484.23 414.96 484.71
  C 415.08 491.44 414.04 499.95 416.80 505.95
  C 419.37 511.54 427.24 512.80 432.51 511.54
  C 437.52 510.33 440.15 507.16 441.20 502.03
  C 445.27 481.99 428.70 468.04 414.35 455.14
  C 396.93 439.46 387.49 420.31 392.19 396.33
  C 395.22 380.86 403.94 370.30 419.99 367.69
  Q 432.04 365.73 442.74 368.55
  C 463.87 374.12 468.15 394.53 467.70 413.32
  Q 467.69 413.80 467.21 413.80
  L 443.50 413.68
  Q 442.95 413.67 442.97 413.13
  C 443.19 406.86 443.70 397.73 438.84 393.56
  Z"
/>
<path d="
  M 778.10 407.75
  C 778.31 436.65 778.16 465.59 777.96 494.50
  C 777.88 505.54 781.99 514.01 794.74 511.74
  C 802.97 510.28 805.08 502.99 805.02 495.50
  Q 804.93 484.27 804.76 473.13
  Q 804.75 472.35 805.52 472.35
  L 829.19 472.41
  Q 829.74 472.41 829.73 472.97
  Q 829.49 484.54 829.44 495.99
  C 829.34 515.75 820.33 532.36 799.25 535.31
  C 770.78 539.28 752.14 525.03 752.06 495.50
  Q 751.95 451.38 752.02 407.25
  C 752.04 394.77 756.00 380.63 766.84 373.29
  C 776.35 366.85 791.28 365.46 802.52 368.13
  C 830.53 374.80 829.90 401.23 829.43 424.07
  Q 829.43 424.53 828.97 424.53
  L 805.50 424.52
  Q 804.95 424.52 804.93 423.97
  C 804.76 416.38 805.54 408.21 804.34 400.75
  C 802.87 391.56 793.29 388.72 785.54 391.86
  C 778.74 394.62 778.05 401.17 778.10 407.75
  Z"
/>
<path d="
  M 93.80 534.01
  L 70.88 534.00
  A 0.50 0.50 0.0 0 1 70.38 533.42
  L 96.65 369.20
  A 0.50 0.50 0.0 0 1 97.15 368.78
  L 134.37 368.80
  A 0.50 0.50 0.0 0 1 134.87 369.22
  L 161.14 533.43
  A 0.50 0.50 0.0 0 1 160.64 534.01
  L 135.40 534.00
  A 0.50 0.50 0.0 0 1 134.91 533.57
  L 130.54 504.45
  A 0.50 0.50 0.0 0 0 130.05 504.02
  L 99.12 504.03
  A 0.50 0.50 0.0 0 0 98.63 504.46
  L 94.29 533.58
  A 0.50 0.50 0.0 0 1 93.80 534.01
  Z
  M 126.85 481.19
  L 114.78 400.51
  Q 114.47 398.40 114.15 400.51
  L 102.15 480.79
  A 0.67 0.67 0.0 0 0 102.81 481.56
  L 126.55 481.55
  A 0.32 0.30 85.9 0 0 126.85 481.19
  Z"
/>
<path d="
  M 349.63 369.13
  A 0.36 0.36 0.0 0 1 349.99 368.77
  L 375.23 368.79
  A 0.54 0.53 0.6 0 1 375.76 369.32
  Q 375.68 411.83 375.87 454.25
  C 375.89 459.32 376.50 471.04 376.15 479.42
  C 375.38 497.47 375.71 515.63 375.74 533.67
  A 0.33 0.33 0.0 0 1 375.41 534.00
  L 350.18 534.01
  Q 349.61 534.01 349.61 533.43
  L 349.63 369.13
  Z"
/>
<path d="
  M 528.27 392.93
  L 528.28 533.53
  A 0.47 0.47 0.0 0 1 527.81 534.00
  L 502.71 534.03
  A 0.47 0.47 0.0 0 1 502.24 533.56
  L 502.24 392.96
  A 0.47 0.47 0.0 0 0 501.77 392.49
  L 475.56 392.48
  A 0.47 0.47 0.0 0 1 475.09 392.01
  L 475.13 369.25
  A 0.47 0.47 0.0 0 1 475.60 368.78
  L 554.90 368.78
  A 0.47 0.47 0.0 0 1 555.37 369.24
  L 555.70 391.99
  A 0.47 0.47 0.0 0 1 555.23 392.47
  L 528.74 392.46
  A 0.47 0.47 0.0 0 0 528.27 392.93
  Z"
/>
<path d="
  M 592.81 392.95
  L 592.91 437.42
  Q 592.91 438.17 593.67 438.18
  L 626.95 438.45
  Q 628.44 438.47 628.43 439.95
  L 628.26 461.51
  Q 628.25 462.03 627.74 462.03
  L 593.64 462.03
  Q 592.81 462.03 592.81 462.87
  L 592.93 509.23
  A 0.92 0.92 0.0 0 0 593.85 510.15
  L 637.21 510.44
  Q 637.72 510.44 637.72 510.96
  L 637.66 533.43
  Q 637.66 534.01 637.07 534.01
  L 567.21 534.02
  A 0.75 0.75 0.0 0 1 566.46 533.26
  C 566.77 519.23 566.35 503.34 566.39 491.26
  Q 566.50 449.86 566.19 408.46
  C 566.10 396.41 566.75 382.29 566.61 369.15
  A 0.39 0.39 0.0 0 1 567.00 368.76
  L 637.01 368.77
  A 0.49 0.49 0.0 0 1 637.50 369.26
  L 637.52 391.97
  Q 637.52 392.46 637.03 392.46
  L 593.30 392.46
  Q 592.81 392.46 592.81 392.95
  Z"
/>
<path d="
  M 676.63 415.86
  L 676.73 533.94
  A 0.06 0.06 0.0 0 1 676.67 534.00
  L 653.19 534.09
  A 0.06 0.06 0.0 0 1 653.13 534.03
  L 653.19 368.84
  A 0.06 0.06 0.0 0 1 653.25 368.78
  L 685.71 368.80
  A 0.06 0.06 0.0 0 1 685.77 368.84
  L 712.10 466.03
  A 0.06 0.06 0.0 0 0 712.22 466.01
  L 712.43 368.84
  A 0.06 0.06 0.0 0 1 712.49 368.78
  L 735.63 368.80
  A 0.06 0.06 0.0 0 1 735.69 368.86
  L 735.65 533.94
  A 0.06 0.06 0.0 0 1 735.59 534.00
  L 708.91 534.01
  A 0.06 0.06 0.0 0 1 708.85 533.97
  L 676.85 415.83
  A 0.06 0.06 0.0 0 0 676.79 415.79
  L 676.68 415.80
  A 0.06 0.06 0.0 0 0 676.63 415.86
  Z"
/>
<rect x="845.13" y="368.82" width="26.10" height="165.18" rx="0.28"/>
<path d="
  M 906.80 534.00
  L 883.87 534.01
  A 0.50 0.50 0.0 0 1 883.37 533.43
  L 909.65 369.21
  A 0.50 0.50 0.0 0 1 910.15 368.79
  L 947.36 368.80
  A 0.50 0.50 0.0 0 1 947.86 369.22
  L 974.14 533.43
  A 0.50 0.50 0.0 0 1 973.64 534.01
  L 948.39 534.00
  A 0.50 0.50 0.0 0 1 947.90 533.57
  L 943.55 504.46
  A 0.50 0.50 0.0 0 0 943.06 504.03
  L 912.12 504.04
  A 0.50 0.50 0.0 0 0 911.63 504.47
  L 907.29 533.57
  A 0.50 0.50 0.0 0 1 906.80 534.00
  Z
  M 927.34 400.50
  Q 920.72 440.70 915.32 481.03
  Q 915.25 481.55 915.77 481.55
  L 939.29 481.55
  Q 939.89 481.55 939.80 480.96
  L 927.78 400.51
  Q 927.57 399.09 927.34 400.50
  Z"
/>
</g>
</svg>
