<?xml version="1.0" encoding="UTF-8" standalone="no"?>
<!DOCTYPE svg PUBLIC "-//W3C//DTD SVG 1.1//EN" "http://www.w3.org/Graphics/SVG/1.1/DTD/svg11.dtd">
<svg xmlns="http://www.w3.org/2000/svg" version="1.1" viewBox="0.00 0.00 143.00 192.00">
<g stroke-width="2.00" fill="none" stroke-linecap="butt">
<path stroke="#ecebec" vector-effect="non-scaling-stroke" d="
  M 34.95 44.13
  L 33.27 46.14
  Q 30.68 49.25 34.73 49.26
  L 98.75 49.28
  Q 102.74 49.28 100.20 46.21
  L 98.45 44.10
  Q 95.90 41.01 91.90 41.01
  L 41.52 41.05
  Q 37.52 41.05 34.95 44.13"
/>
<path stroke="#ecebec" vector-effect="non-scaling-stroke" d="
  M 38.17 123.20
  Q 37.70 123.60 38.07 124.10
  Q 41.67 128.96 40.27 134.95
  A 0.74 0.74 0.0 0 0 40.99 135.86
  L 100.00 135.75
  A 1.00 1.00 0.0 0 0 101.00 134.75
  L 101.01 114.80
  Q 101.01 114.31 100.76 113.90
  Q 100.21 113.00 99.86 112.65
  C 93.96 106.89 83.16 95.58 83.03 89.50
  C 82.96 85.94 86.45 83.74 88.75 81.50
  Q 93.40 76.98 99.96 77.46
  A 0.96 0.96 0.0 0 0 100.99 76.50
  L 101.02 58.00
  A 0.77 0.76 -0.0 0 0 100.25 57.24
  L 36.75 57.22
  Q 34.30 57.22 36.54 58.20
  C 44.65 61.74 47.32 74.33 39.92 80.10
  Q 39.14 80.71 39.81 81.44
  C 45.49 87.52 46.27 95.44 39.47 100.65
  A 0.65 0.65 0.0 0 0 39.43 101.64
  C 42.75 104.70 44.86 109.35 44.09 113.82
  Q 43.22 118.90 38.17 123.20"
/>
<path stroke="#ecebec" vector-effect="non-scaling-stroke" d="
  M 35.7250 68.3303
  A 5.43 5.43 0.0 0 0 29.0546 64.5256
  L 22.3992 66.3463
  A 5.43 5.43 0.0 0 0 18.5945 73.0167
  L 18.7950 73.7497
  A 5.43 5.43 0.0 0 0 25.4654 77.5544
  L 32.1208 75.7337
  A 5.43 5.43 0.0 0 0 35.9255 69.0633
  L 35.7250 68.3303"
/>
<path stroke="#ecebec" vector-effect="non-scaling-stroke" d="
  M 18.53 92.24
  C 19.59 101.41 30.91 97.02 35.35 93.93
  A 1.38 1.32 -12.1 0 0 35.91 93.10
  C 36.73 89.45 35.44 84.97 30.74 85.05
  C 26.33 85.14 17.83 86.11 18.53 92.24"
/>
<path stroke="#ecebec" vector-effect="non-scaling-stroke" d="
  M 111.00 113.89
  C 112.55 115.86 112.89 117.76 111.08 119.61
  A 1.62 1.62 0.0 0 1 110.20 120.05
  Q 107.99 120.36 108.02 122.74
  Q 108.24 142.87 108.07 163.01
  A 0.52 0.52 0.0 0 0 108.64 163.54
  C 111.63 163.25 114.22 162.53 116.77 160.75
  C 134.39 148.45 137.15 120.53 123.69 104.02
  C 120.47 100.06 115.50 97.10 111.11 94.05
  C 107.35 91.43 102.00 84.84 97.20 84.99
  C 95.22 85.05 90.30 88.24 91.81 90.69
  Q 94.07 94.38 98.18 98.84
  Q 104.87 106.12 111.00 113.89"
/>
<path stroke="#ecebec" vector-effect="non-scaling-stroke" d="
  M 36.09 111.63
  C 34.87 102.63 25.49 106.49 20.56 108.85
  Q 18.50 109.84 18.42 112.49
  C 18.16 120.64 26.38 119.45 31.23 117.58
  C 34.38 116.36 36.59 115.36 36.09 111.63"
/>
<path stroke="#ecebec" vector-effect="non-scaling-stroke" d="
  M 32.3812 129.7118
  A 3.30 3.30 0.0 0 0 28.2529 127.5353
  L 24.2216 128.7832
  A 3.30 3.30 0.0 0 0 22.0451 132.9114
  L 22.1988 133.4082
  A 3.30 3.30 0.0 0 0 26.3271 135.5847
  L 30.3584 134.3368
  A 3.30 3.30 0.0 0 0 32.5349 130.2086
  L 32.3812 129.7118"
/>
<path stroke="#ecebec" vector-effect="non-scaling-stroke" d="
  M 33.17 164.56
  C 35.23 169.31 39.44 169.75 44.00 169.75
  Q 66.42 169.74 88.83 169.75
  C 98.94 169.75 101.01 166.14 101.01 156.19
  Q 101.00 150.25 100.97 144.41
  A 0.73 0.73 0.0 0 0 100.24 143.68
  L 33.26 143.69
  A 0.90 0.89 -0.6 0 0 32.36 144.60
  Q 32.54 153.68 32.50 162.10
  C 32.50 162.95 32.84 163.82 33.17 164.56"
/>
<path stroke="#ecebec" vector-effect="non-scaling-stroke" d="
  M 83.18 59.75
  A 2.92 2.91 68.0 0 0 79.47 58.17
  C 63.99 64.02 55.91 79.31 58.97 95.24
  C 59.54 98.16 61.50 103.61 65.10 103.45
  C 68.75 103.28 68.86 99.16 67.93 96.63
  C 63.04 83.33 69.28 71.83 81.78 65.29
  A 3.76 3.76 0.0 0 0 83.49 60.47
  L 83.18 59.75"
/>
<path stroke="#ecebec" vector-effect="non-scaling-stroke" d="
  M 79.30 83.04
  C 80.72 80.17 82.49 78.06 85.28 76.19
  C 87.13 74.95 90.76 73.58 90.19 70.76
  C 89.46 67.18 86.29 66.37 83.22 67.97
  C 72.86 73.39 67.55 85.10 71.47 96.32
  C 72.60 99.56 76.15 102.33 78.95 98.67
  Q 79.79 97.57 79.55 96.49
  C 78.48 91.85 76.87 87.96 79.30 83.04"
/>
<path stroke="#ecebec" vector-effect="non-scaling-stroke" d="
  M 76.6303 157.2078
  A 3.79 3.79 0.0 0 0 72.8469 153.4112
  L 59.9869 153.3888
  A 3.79 3.79 0.0 0 0 56.1903 157.1722
  L 56.1897 157.4922
  A 3.79 3.79 0.0 0 0 59.9731 161.2888
  L 72.8331 161.3112
  A 3.79 3.79 0.0 0 0 76.6297 157.5278
  L 76.6303 157.2078"
/>
</g>
<g fill="#fffdfe">
<path d="
  M 34.95 44.13
  Q 37.52 41.05 41.52 41.05
  L 91.90 41.01
  Q 95.90 41.01 98.45 44.10
  L 100.20 46.21
  Q 102.74 49.28 98.75 49.28
  L 34.73 49.26
  Q 30.68 49.25 33.27 46.14
  L 34.95 44.13
  Z"
/>
<path d="
  M 38.17 123.20
  Q 43.22 118.90 44.09 113.82
  C 44.86 109.35 42.75 104.70 39.43 101.64
  A 0.65 0.65 0.0 0 1 39.47 100.65
  C 46.27 95.44 45.49 87.52 39.81 81.44
  Q 39.14 80.71 39.92 80.10
  C 47.32 74.33 44.65 61.74 36.54 58.20
  Q 34.30 57.22 36.75 57.22
  L 100.25 57.24
  A 0.77 0.76 0.0 0 1 101.02 58.00
  L 100.99 76.50
  A 0.96 0.96 0.0 0 1 99.96 77.46
  Q 93.40 76.98 88.75 81.50
  C 86.45 83.74 82.96 85.94 83.03 89.50
  C 83.16 95.58 93.96 106.89 99.86 112.65
  Q 100.21 113.00 100.76 113.90
  Q 101.01 114.31 101.01 114.80
  L 101.00 134.75
  A 1.00 1.00 0.0 0 1 100.00 135.75
  L 40.99 135.86
  A 0.74 0.74 0.0 0 1 40.27 134.95
  Q 41.67 128.96 38.07 124.10
  Q 37.70 123.60 38.17 123.20
  Z
  M 83.18 59.75
  A 2.92 2.91 68.0 0 0 79.47 58.17
  C 63.99 64.02 55.91 79.31 58.97 95.24
  C 59.54 98.16 61.50 103.61 65.10 103.45
  C 68.75 103.28 68.86 99.16 67.93 96.63
  C 63.04 83.33 69.28 71.83 81.78 65.29
  A 3.76 3.76 0.0 0 0 83.49 60.47
  L 83.18 59.75
  Z
  M 79.30 83.04
  C 80.72 80.17 82.49 78.06 85.28 76.19
  C 87.13 74.95 90.76 73.58 90.19 70.76
  C 89.46 67.18 86.29 66.37 83.22 67.97
  C 72.86 73.39 67.55 85.10 71.47 96.32
  C 72.60 99.56 76.15 102.33 78.95 98.67
  Q 79.79 97.57 79.55 96.49
  C 78.48 91.85 76.87 87.96 79.30 83.04
  Z"
/>
<rect x="-8.88" y="-5.81" transform="translate(27.26,71.04) rotate(-15.3)" width="17.76" height="11.62" rx="5.43"/>
<path d="
  M 35.35 93.93
  C 30.91 97.02 19.59 101.41 18.53 92.24
  C 17.83 86.11 26.33 85.14 30.74 85.05
  C 35.44 84.97 36.73 89.45 35.91 93.10
  A 1.38 1.32 -12.1 0 1 35.35 93.93
  Z"
/>
<path d="
  M 111.00 113.89
  Q 104.87 106.12 98.18 98.84
  Q 94.07 94.38 91.81 90.69
  C 90.30 88.24 95.22 85.05 97.20 84.99
  C 102.00 84.84 107.35 91.43 111.11 94.05
  C 115.50 97.10 120.47 100.06 123.69 104.02
  C 137.15 120.53 134.39 148.45 116.77 160.75
  C 114.22 162.53 111.63 163.25 108.64 163.54
  A 0.52 0.52 0.0 0 1 108.07 163.01
  Q 108.24 142.87 108.02 122.74
  Q 107.99 120.36 110.20 120.05
  A 1.62 1.62 0.0 0 0 111.08 119.61
  C 112.89 117.76 112.55 115.86 111.00 113.89
  Z"
/>
<path d="
  M 36.09 111.63
  C 36.59 115.36 34.38 116.36 31.23 117.58
  C 26.38 119.45 18.16 120.64 18.42 112.49
  Q 18.50 109.84 20.56 108.85
  C 25.49 106.49 34.87 102.63 36.09 111.63
  Z"
/>
<rect x="-5.41" y="-3.56" transform="translate(27.29,131.56) rotate(-17.2)" width="10.82" height="7.12" rx="3.30"/>
<path d="
  M 33.17 164.56
  C 32.84 163.82 32.50 162.95 32.50 162.10
  Q 32.54 153.68 32.36 144.60
  A 0.90 0.89 -0.6 0 1 33.26 143.69
  L 100.24 143.68
  A 0.73 0.73 0.0 0 1 100.97 144.41
  Q 101.00 150.25 101.01 156.19
  C 101.01 166.14 98.94 169.75 88.83 169.75
  Q 66.42 169.74 44.00 169.75
  C 39.44 169.75 35.23 169.31 33.17 164.56
  Z
  M 76.6303 157.2078
  A 3.79 3.79 0.0 0 0 72.8469 153.4112
  L 59.9869 153.3888
  A 3.79 3.79 0.0 0 0 56.1903 157.1722
  L 56.1897 157.4922
  A 3.79 3.79 0.0 0 0 59.9731 161.2888
  L 72.8331 161.3112
  A 3.79 3.79 0.0 0 0 76.6297 157.5278
  L 76.6303 157.2078
  Z"
/>
</g>
<g fill="#d9d9d9">
<path d="
  M 118.25 88.87
  C 130.61 95.04 138.64 109.55 140.03 123.41
  Q 141.82 141.14 132.98 156.49
  C 129.88 161.86 125.17 164.76 120.24 168.27
  C 116.30 171.06 111.16 171.70 106.55 172.41
  C 104.11 172.78 103.77 174.22 101.88 175.22
  Q 96.28 178.18 91.50 178.17
  Q 65.88 178.12 40.25 178.16
  Q 35.60 178.17 31.01 174.86
  Q 28.96 173.37 27.66 170.65
  C 25.44 165.99 24.49 163.54 24.56 158.50
  Q 24.66 151.60 24.76 145.08
  A 1.20 1.20 0.0 0 0 23.42 143.88
  Q 22.48 143.99 21.40 143.43
  C 14.17 139.69 11.87 133.98 14.50 126.08
  Q 14.66 125.61 14.55 125.12
  C 13.93 122.37 11.97 120.24 11.24 118.18
  C 9.93 114.42 9.58 109.04 12.13 105.65
  Q 13.26 104.15 14.37 102.86
  A 0.64 0.63 -48.1 0 0 14.33 101.99
  C 10.13 97.97 9.62 93.10 10.43 87.76
  C 10.78 85.46 13.04 84.65 14.34 83.02
  Q 14.66 82.62 14.32 82.24
  C 9.36 76.65 7.97 67.91 13.62 62.29
  Q 17.30 58.62 22.46 57.61
  A 2.92 2.92 0.0 0 0 24.81 54.54
  C 24.53 50.51 24.83 46.45 26.65 42.62
  C 27.55 40.72 28.12 38.61 29.71 37.23
  C 33.52 33.94 37.08 32.76 42.43 32.75
  Q 65.83 32.72 89.23 32.72
  Q 95.34 32.72 98.15 33.75
  C 102.52 35.36 106.26 38.65 107.24 43.42
  C 107.64 45.40 108.34 47.22 108.35 49.23
  Q 108.42 65.96 108.34 81.69
  A 2.82 2.81 9.0 0 0 110.30 84.38
  Q 111.63 84.80 112.88 85.31
  C 114.88 86.13 116.38 87.93 118.25 88.87
  Z
  M 34.95 44.13
  L 33.27 46.14
  Q 30.68 49.25 34.73 49.26
  L 98.75 49.28
  Q 102.74 49.28 100.20 46.21
  L 98.45 44.10
  Q 95.90 41.01 91.90 41.01
  L 41.52 41.05
  Q 37.52 41.05 34.95 44.13
  Z
  M 38.17 123.20
  Q 37.70 123.60 38.07 124.10
  Q 41.67 128.96 40.27 134.95
  A 0.74 0.74 0.0 0 0 40.99 135.86
  L 100.00 135.75
  A 1.00 1.00 0.0 0 0 101.00 134.75
  L 101.01 114.80
  Q 101.01 114.31 100.76 113.90
  Q 100.21 113.00 99.86 112.65
  C 93.96 106.89 83.16 95.58 83.03 89.50
  C 82.96 85.94 86.45 83.74 88.75 81.50
  Q 93.40 76.98 99.96 77.46
  A 0.96 0.96 0.0 0 0 100.99 76.50
  L 101.02 58.00
  A 0.77 0.76 -0.0 0 0 100.25 57.24
  L 36.75 57.22
  Q 34.30 57.22 36.54 58.20
  C 44.65 61.74 47.32 74.33 39.92 80.10
  Q 39.14 80.71 39.81 81.44
  C 45.49 87.52 46.27 95.44 39.47 100.65
  A 0.65 0.65 0.0 0 0 39.43 101.64
  C 42.75 104.70 44.86 109.35 44.09 113.82
  Q 43.22 118.90 38.17 123.20
  Z
  M 35.7250 68.3303
  A 5.43 5.43 0.0 0 0 29.0546 64.5256
  L 22.3992 66.3463
  A 5.43 5.43 0.0 0 0 18.5945 73.0167
  L 18.7950 73.7497
  A 5.43 5.43 0.0 0 0 25.4654 77.5544
  L 32.1208 75.7337
  A 5.43 5.43 0.0 0 0 35.9255 69.0633
  L 35.7250 68.3303
  Z
  M 18.53 92.24
  C 19.59 101.41 30.91 97.02 35.35 93.93
  A 1.38 1.32 -12.1 0 0 35.91 93.10
  C 36.73 89.45 35.44 84.97 30.74 85.05
  C 26.33 85.14 17.83 86.11 18.53 92.24
  Z
  M 111.00 113.89
  C 112.55 115.86 112.89 117.76 111.08 119.61
  A 1.62 1.62 0.0 0 1 110.20 120.05
  Q 107.99 120.36 108.02 122.74
  Q 108.24 142.87 108.07 163.01
  A 0.52 0.52 0.0 0 0 108.64 163.54
  C 111.63 163.25 114.22 162.53 116.77 160.75
  C 134.39 148.45 137.15 120.53 123.69 104.02
  C 120.47 100.06 115.50 97.10 111.11 94.05
  C 107.35 91.43 102.00 84.84 97.20 84.99
  C 95.22 85.05 90.30 88.24 91.81 90.69
  Q 94.07 94.38 98.18 98.84
  Q 104.87 106.12 111.00 113.89
  Z
  M 36.09 111.63
  C 34.87 102.63 25.49 106.49 20.56 108.85
  Q 18.50 109.84 18.42 112.49
  C 18.16 120.64 26.38 119.45 31.23 117.58
  C 34.38 116.36 36.59 115.36 36.09 111.63
  Z
  M 32.3812 129.7118
  A 3.30 3.30 0.0 0 0 28.2529 127.5353
  L 24.2216 128.7832
  A 3.30 3.30 0.0 0 0 22.0451 132.9114
  L 22.1988 133.4082
  A 3.30 3.30 0.0 0 0 26.3271 135.5847
  L 30.3584 134.3368
  A 3.30 3.30 0.0 0 0 32.5349 130.2086
  L 32.3812 129.7118
  Z
  M 33.17 164.56
  C 35.23 169.31 39.44 169.75 44.00 169.75
  Q 66.42 169.74 88.83 169.75
  C 98.94 169.75 101.01 166.14 101.01 156.19
  Q 101.00 150.25 100.97 144.41
  A 0.73 0.73 0.0 0 0 100.24 143.68
  L 33.26 143.69
  A 0.90 0.89 -0.6 0 0 32.36 144.60
  Q 32.54 153.68 32.50 162.10
  C 32.50 162.95 32.84 163.82 33.17 164.56
  Z"
/>
<path d="
  M 83.18 59.75
  L 83.49 60.47
  A 3.76 3.76 0.0 0 1 81.78 65.29
  C 69.28 71.83 63.04 83.33 67.93 96.63
  C 68.86 99.16 68.75 103.28 65.10 103.45
  C 61.50 103.61 59.54 98.16 58.97 95.24
  C 55.91 79.31 63.99 64.02 79.47 58.17
  A 2.92 2.91 68.0 0 1 83.18 59.75
  Z"
/>
<path d="
  M 79.30 83.04
  C 76.87 87.96 78.48 91.85 79.55 96.49
  Q 79.79 97.57 78.95 98.67
  C 76.15 102.33 72.60 99.56 71.47 96.32
  C 67.55 85.10 72.86 73.39 83.22 67.97
  C 86.29 66.37 89.46 67.18 90.19 70.76
  C 90.76 73.58 87.13 74.95 85.28 76.19
  C 82.49 78.06 80.72 80.17 79.30 83.04
  Z"
/>
<rect x="-10.22" y="-3.95" transform="translate(66.41,157.35) rotate(0.1)" width="20.44" height="7.90" rx="3.79"/>
</g>
</svg>
